<svg width="32" height="32" viewBox="0 0 32 32" fill="none" xmlns="http://www.w3.org/2000/svg">
<path d="M24 5.33301C26.2091 5.33301 28 7.12485 28 9.33398V11.334L25.333 10V9.33398C25.333 8.5976 24.7364 8 24 8H8C7.26362 8 6.66699 8.5976 6.66699 9.33398V10.666H20.001C20.001 10.666 18.9263 11.2418 18.3037 11.9443C17.6718 12.6575 17.3393 13.3224 17.334 13.333H6.66699V22.667C6.66708 23.4033 7.26367 24 8 24H14.667V26.667H8C5.79091 26.667 4.00009 24.8761 4 22.667V9.33398C4 7.12485 5.79086 5.33301 8 5.33301H24ZM23.333 12C25.9102 12.0002 27.999 14.0898 27.999 16.667C27.9989 17.9548 27.4774 19.1205 26.6338 19.9648C27.0435 20.3216 27.4095 20.736 27.7256 21.1875C28.7452 22.644 29.334 24.586 29.334 26.667H26.667C26.667 25.0662 26.2103 23.6741 25.541 22.7178C24.8687 21.7573 24.0681 21.333 23.334 21.333C22.5998 21.333 21.7993 21.7573 21.127 22.7178C20.4577 23.6741 20.001 25.0662 20.001 26.667H17.334C17.334 24.586 17.9228 22.644 18.9424 21.1875C19.2581 20.7366 19.6232 20.3223 20.0322 19.9658C19.1882 19.1214 18.6661 17.9552 18.666 16.667C18.666 14.0897 20.7557 12 23.333 12ZM23.333 14.667C22.2284 14.667 21.333 15.5624 21.333 16.667C21.3332 17.7023 22.1197 18.5537 23.1279 18.6562L23.333 18.667L23.5371 18.6562C24.5455 18.5539 25.3328 17.7024 25.333 16.667C25.333 15.5625 24.4374 14.6672 23.333 14.667ZM12.001 18.667H9.33398V16H12.001V18.667Z" fill="white"/>
</svg>
