<svg preserveAspectRatio="none" overflow="visible" style="display: block;" width="20" height="20" viewBox="0 0 20 20" fill="none" xmlns="http://www.w3.org/2000/svg">
<g id="Frame 1991424148">
<path id="Union" d="M14.3145 1.66797C15.4492 1.66797 16.208 2.39945 16.208 3.47949V15.2646C16.208 16.3447 15.4492 17.0693 14.3145 17.0693H6.67871C5.54395 17.0693 4.78516 16.3447 4.78516 15.2646V3.47949C4.78518 2.39945 5.54397 1.66797 6.67871 1.66797H14.3145ZM6.81543 2.76855C6.22756 2.76855 5.88577 3.10355 5.88574 3.66406V15.0801C5.88574 15.6406 6.22754 15.9688 6.81543 15.9688H14.1777C14.7588 15.9688 15.1074 15.6406 15.1074 15.0801V3.66406C15.1074 3.10355 14.7588 2.76855 14.1777 2.76855H6.81543ZM7.5 5.16211C7.91421 5.16211 8.25 5.4979 8.25 5.91211C8.24996 6.32629 7.91419 6.66211 7.5 6.66211C7.08581 6.66211 6.75004 6.32629 6.75 5.91211C6.75 5.4979 7.08579 5.16211 7.5 5.16211ZM8.5957 4.80273C8.73364 4.80273 8.84548 4.91485 8.8457 5.05273C8.8457 5.19081 8.73377 5.30273 8.5957 5.30273C8.45771 5.30264 8.3457 5.19075 8.3457 5.05273C8.34593 4.91491 8.45785 4.80283 8.5957 4.80273ZM7.5 3.5C7.91421 3.5 8.25 3.83579 8.25 4.25C8.25 4.66421 7.91421 5 7.5 5C7.08579 5 6.75 4.66421 6.75 4.25C6.75 3.83579 7.08579 3.5 7.5 3.5Z" fill="#595959"/>
</g>
</svg>
