<svg preserveAspectRatio="none" overflow="visible" style="display: block;" width="20" height="20" viewBox="0 0 20 20" fill="none" xmlns="http://www.w3.org/2000/svg">
<g id="Pause">
<path id="&#244;&#128;&#138;&#134;" d="M6.7207 15.9023C6.07129 15.9023 5.74316 15.5674 5.74316 14.918V5.2041C5.74316 4.56152 6.07812 4.22656 6.7207 4.22656H8.32031C8.96973 4.22656 9.29785 4.54102 9.29785 5.2041V14.918C9.29785 15.5674 8.96973 15.9023 8.32031 15.9023H6.7207ZM11.8955 15.9023C11.2461 15.9023 10.918 15.5674 10.918 14.918V5.2041C10.918 4.56152 11.2461 4.22656 11.8955 4.22656H13.4951C14.1377 4.22656 14.4727 4.54102 14.4727 5.2041V14.918C14.4727 15.5674 14.1377 15.9023 13.4951 15.9023H11.8955Z" fill="#595959"/>
</g>
</svg>
